<svg width="32" height="32" viewBox="0 0 32 32" fill="none" xmlns="http://www.w3.org/2000/svg">
<path fill-rule="evenodd" clip-rule="evenodd" d="M30 17C30 19.759 28.4606 22.1452 26.2239 23.2855C25.6347 23.5859 25 23.1081 25 22.4468V22.3121C25 21.909 25.2474 21.5536 25.5934 21.3468C27.0137 20.4979 28 18.8974 28 17C28 14.1696 25.8053 12 23.2493 12C22.8632 12 22.4853 12.0495 22.122 12.1433C21.6762 12.2585 21.18 11.971 21.1069 11.5164C21.0675 11.2713 21.0185 11.0295 20.9603 10.7915C20.9601 10.7907 20.9592 10.7902 20.9584 10.7905C20.9576 10.7909 20.9567 10.7904 20.9565 10.7896C20.0082 6.84927 16.5833 4 12.6083 4C7.92179 4 4 7.96046 4 13C4 16.0278 5.41563 18.666 7.5622 20.2899C7.82952 20.4921 8 20.8018 8 21.137V21.2914C8 22.0351 7.21975 22.5078 6.61378 22.0767C3.82755 20.0944 2 16.7685 2 13C2 6.92487 6.74949 2 12.6083 2C17.3236 2 21.3204 5.19007 22.7009 9.60242C22.7753 9.8404 22.9999 10 23.2493 10C26.9776 10 30 13.134 30 17ZM10.001 22.4091C10.0009 21.9308 10.1533 21.4108 10.3609 20.9244C10.4848 20.6344 10.6282 20.3562 10.7708 20.106C11.0996 19.5287 11.8815 19.5417 12.2053 20.1218C12.3442 20.3707 12.4851 20.6445 12.609 20.9252C12.8327 21.4321 13.0009 21.9619 13.001 22.4091C13.0013 23.2877 12.33 24 11.5015 24C10.6731 24 10.0013 23.2877 10.001 22.4091ZM15.3609 20.9244C15.1533 21.4108 15.0009 21.9308 15.001 22.4091C15.0013 23.2877 15.6731 24 16.5015 24C17.33 24 18.0013 23.2877 18.001 22.4091C18.0009 21.9619 17.8327 21.4321 17.609 20.9252C17.4851 20.6445 17.3442 20.3707 17.2053 20.1218C16.8815 19.5417 16.0996 19.5287 15.7708 20.106C15.6282 20.3563 15.4848 20.6344 15.3609 20.9244ZM12.8756 27.4091C12.8754 26.9308 13.0278 26.4108 13.2354 25.9244C13.3593 25.6344 13.5028 25.3562 13.6453 25.106C13.9741 24.5287 14.756 24.5417 15.0798 25.1218C15.2187 25.3707 15.3596 25.6445 15.4835 25.9252C15.7072 26.4321 15.8754 26.9619 15.8756 27.4091C15.8758 28.2877 15.2045 29 14.376 29C13.5476 29 12.8758 28.2877 12.8756 27.4091ZM20.3609 20.9244C20.1533 21.4108 20.0009 21.9308 20.001 22.4091C20.0013 23.2877 20.6731 24 21.5015 24C22.33 24 23.0013 23.2877 23.001 22.4091C23.0009 21.9619 22.8327 21.4321 22.609 20.9252C22.4851 20.6445 22.3442 20.3707 22.2053 20.1218C21.8815 19.5417 21.0996 19.5287 20.7708 20.106C20.6282 20.3563 20.4848 20.6344 20.3609 20.9244ZM17.8905 27.4091C17.8903 26.9308 18.0427 26.4108 18.2503 25.9244C18.3742 25.6344 18.5177 25.3562 18.6602 25.106C18.989 24.5287 19.7709 24.5417 20.0947 25.1218C20.2336 25.3707 20.3745 25.6445 20.4984 25.9252C20.7221 26.4321 20.8903 26.9619 20.8904 27.4091C20.8907 28.2877 20.2194 29 19.3909 29C18.5625 29 17.8907 28.2877 17.8905 27.4091Z" fill="url(#paint0_linear_9_3214)"/>
<defs>
<linearGradient id="paint0_linear_9_3214" x1="16" y1="2" x2="16" y2="29" gradientUnits="userSpaceOnUse">
<stop stop-color="#95B6F6"/>
<stop offset="1" stop-color="#5193DE"/>
</linearGradient>
</defs>
</svg>
