<svg width="32" height="32" viewBox="0 0 32 32" fill="none" xmlns="http://www.w3.org/2000/svg">
<path fillRule="evenodd" clipRule="evenodd" d="M8 21.2914C8 22.0351 7.21975 22.5078 6.61378 22.0767C3.82755 20.0944 2 16.7685 2 13C2 6.92487 6.74949 2 12.6083 2C17.3236 2 21.3204 5.19007 22.7009 9.60242C22.7753 9.8404 22.9999 10 23.2493 10V10C26.9776 10 30 13.134 30 17C30 20.2013 27.9275 22.9008 25.0978 23.7343C24.5247 23.9031 24 23.4333 24 22.8359V22.7821C24 22.2941 24.3576 21.8883 24.8154 21.7193C26.6405 21.0459 28 19.2276 28 17C28 14.1696 25.8053 12 23.2493 12C22.8632 12 22.4853 12.0495 22.122 12.1433C21.6762 12.2585 21.18 11.971 21.1069 11.5164C21.0675 11.2713 21.0185 11.0295 20.9603 10.7915C20.9601 10.7907 20.9592 10.7902 20.9584 10.7905V10.7905C20.9576 10.7909 20.9567 10.7904 20.9565 10.7896C20.0082 6.84927 16.5833 4 12.6083 4C7.92179 4 4 7.96046 4 13C4 16.0278 5.41563 18.666 7.5622 20.2899C7.82952 20.4921 8 20.8018 8 21.137V21.2914ZM12.4997 23.0021C12.7419 23.0021 12.9999 22.7921 12.9998 22.456C12.9997 22.272 12.9366 21.9263 12.7412 21.4168V21.4168C12.6448 21.1652 12.3047 21.1679 12.2153 21.422C12.076 21.8179 11.9993 22.1713 11.9994 22.456C11.9995 22.7921 12.2576 23.0021 12.4997 23.0021ZM11.29 18.7572C11.4475 18.4924 11.6041 18.2472 11.7498 18.0292C12.11 17.4904 12.8679 17.5038 13.2176 18.0495C13.3582 18.269 13.5098 18.5146 13.6632 18.7778C14.3157 19.8977 14.9995 21.3379 14.9998 22.456C15.0002 23.8622 13.8812 25.0021 12.5004 25.0021C11.1195 25.0021 9.99979 23.8622 9.99935 22.456C9.99898 21.229 10.6517 19.8309 11.29 18.7572ZM20.0021 22.456C20.0022 22.7921 19.7442 23.0021 19.5021 23.0021C19.2599 23.0021 19.0018 22.7921 19.0017 22.456C19.0016 22.1713 19.0783 21.8179 19.2176 21.422C19.307 21.1679 19.6471 21.1652 19.7435 21.4168V21.4168C19.9389 21.9263 20.0021 22.272 20.0021 22.456ZM20.2199 18.0495C19.8702 17.5038 19.1123 17.4904 18.7521 18.0292C18.6064 18.2472 18.4498 18.4924 18.2923 18.7572C17.654 19.8309 17.0013 21.229 17.0017 22.456C17.0021 23.8622 18.1218 25.0021 19.5027 25.0021C20.8835 25.0021 22.0025 23.8622 22.0021 22.456C22.0018 21.3379 21.318 19.8977 20.6655 18.7778C20.5121 18.5146 20.3605 18.269 20.2199 18.0495Z" fill="url(#paint0_linear_9_4384)"/>
<path d="M15.5001 26.2887C15.8095 26.11 16.1907 26.11 16.5001 26.2887L17.2322 26.7113C17.5416 26.89 17.7322 27.2201 17.7322 27.5774V28.4226C17.7322 28.7799 17.5416 29.11 17.2322 29.2887L16.5001 29.7113C16.1907 29.89 15.8095 29.89 15.5001 29.7113L14.7681 29.2887C14.4587 29.11 14.2681 28.7799 14.2681 28.4226V27.5774C14.2681 27.2201 14.4587 26.89 14.7681 26.7113L15.5001 26.2887Z" fill="url(#paint1_linear_9_4384)"/>
<path d="M21.5001 26.2887C21.8095 26.11 22.1907 26.11 22.5001 26.2887L23.2322 26.7113C23.5416 26.89 23.7322 27.2201 23.7322 27.5774V28.4226C23.7322 28.7799 23.5416 29.11 23.2322 29.2887L22.5001 29.7113C22.1907 29.89 21.8095 29.89 21.5001 29.7113L20.7681 29.2887C20.4587 29.11 20.2681 28.7799 20.2681 28.4226V27.5774C20.2681 27.2201 20.4587 26.89 20.7681 26.7113L21.5001 26.2887Z" fill="url(#paint2_linear_9_4384)"/>
<path d="M9.50012 26.2887C9.80952 26.11 10.1907 26.11 10.5001 26.2887L11.2322 26.7113C11.5416 26.89 11.7322 27.2201 11.7322 27.5774V28.4226C11.7322 28.7799 11.5416 29.11 11.2322 29.2887L10.5001 29.7113C10.1907 29.89 9.80952 29.89 9.50012 29.7113L8.76807 29.2887C8.45867 29.11 8.26807 28.7799 8.26807 28.4226V27.5774C8.26807 27.2201 8.45867 26.89 8.76807 26.7113L9.50012 26.2887Z" fill="url(#paint3_linear_9_4384)"/>
<defs>
<linearGradient id="paint0_linear_9_4384" x1="16" y1="2" x2="16" y2="25.0021" gradientUnits="userSpaceOnUse">
<stop stopColor="#95B6F6"/>
<stop offset="1" stopColor="#5193DE"/>
</linearGradient>
<linearGradient id="paint1_linear_9_4384" x1="16.0001" y1="26" x2="16.0001" y2="30" gradientUnits="userSpaceOnUse">
<stop stopColor="#CED3EA"/>
<stop offset="1" stopColor="#7E83A9"/>
</linearGradient>
<linearGradient id="paint2_linear_9_4384" x1="22.0001" y1="26" x2="22.0001" y2="30" gradientUnits="userSpaceOnUse">
<stop stopColor="#CED3EA"/>
<stop offset="1" stopColor="#7E83A9"/>
</linearGradient>
<linearGradient id="paint3_linear_9_4384" x1="10.0001" y1="26" x2="10.0001" y2="30" gradientUnits="userSpaceOnUse">
<stop stopColor="#CED3EA"/>
<stop offset="1" stopColor="#7E83A9"/>
</linearGradient>
</defs>
</svg>
