<svg width="32" height="32" viewBox="0 0 32 32" fill="none" xmlns="http://www.w3.org/2000/svg">
<path fillRule="evenodd" clipRule="evenodd" d="M24 22.8359C24 23.4333 24.5247 23.9031 25.0978 23.7343C27.9275 22.9008 30 20.2013 30 17C30 13.134 26.9776 10 23.2493 10V10C22.9999 10 22.7753 9.8404 22.7009 9.60242C21.3204 5.19007 17.3236 2 12.6083 2C6.74949 2 2 6.92487 2 13C2 17.6717 4.80856 21.6632 8.77038 23.2581C9.37826 23.5028 10 23.0244 10 22.3691V22.2981C10 21.8676 9.72181 21.4908 9.32659 21.32C6.22535 19.9801 4 16.7962 4 13C4 7.96046 7.92179 4 12.6083 4C16.5833 4 20.0082 6.84927 20.9565 10.7896C20.9567 10.7904 20.9576 10.7909 20.9584 10.7905V10.7905C20.9592 10.7902 20.9601 10.7907 20.9603 10.7915C21.0185 11.0295 21.0675 11.2713 21.1069 11.5164C21.18 11.971 21.6762 12.2585 22.122 12.1433C22.4853 12.0495 22.8632 12 23.2493 12C25.8053 12 28 14.1696 28 17C28 19.2276 26.6405 21.0459 24.8154 21.7193C24.3576 21.8883 24 22.2941 24 22.7821V22.8359ZM13.5021 28.0021C13.7442 28.0021 14.0022 27.7921 14.0021 27.456C14.0021 27.272 13.9389 26.9263 13.7435 26.4168V26.4168C13.6471 26.1652 13.307 26.1679 13.2176 26.422C13.0783 26.8179 13.0016 27.1713 13.0017 27.456C13.0018 27.7921 13.2599 28.0021 13.5021 28.0021ZM12.2923 23.7572C12.4498 23.4924 12.6064 23.2472 12.7521 23.0292C13.1123 22.4904 13.8702 22.5038 14.2199 23.0495C14.3605 23.269 14.5121 23.5146 14.6655 23.7778C15.318 24.8977 16.0018 26.3379 16.0021 27.456C16.0025 28.8622 14.8835 30.0021 13.5027 30.0021C12.1218 30.0021 11.0021 28.8622 11.0017 27.456C11.0013 26.229 11.654 24.8309 12.2923 23.7572ZM20.0021 24.456C20.0022 24.7921 19.7442 25.0021 19.5021 25.0021C19.2599 25.0021 19.0018 24.7921 19.0017 24.456C19.0016 24.1713 19.0783 23.8179 19.2176 23.422C19.307 23.1679 19.6471 23.1652 19.7435 23.4168V23.4168C19.9389 23.9263 20.0021 24.272 20.0021 24.456ZM20.2199 20.0495C19.8702 19.5038 19.1123 19.4904 18.7521 20.0292C18.6064 20.2472 18.4498 20.4924 18.2923 20.7572C17.654 21.8309 17.0013 23.229 17.0017 24.456C17.0021 25.8622 18.1218 27.0021 19.5027 27.0021C20.8835 27.0021 22.0025 25.8622 22.0021 24.456C22.0018 23.3379 21.318 21.8977 20.6655 20.7778C20.5121 20.5146 20.3605 20.269 20.2199 20.0495Z" fill="url(#paint0_linear_9_2904)"/>
<defs>
<linearGradient id="paint0_linear_9_2904" x1="16" y1="2" x2="16" y2="30.0021" gradientUnits="userSpaceOnUse">
<stop stopColor="#95B6F6"/>
<stop offset="1" stopColor="#5193DE"/>
</linearGradient>
</defs>
</svg>
