<svg width="32" height="32" viewBox="0 0 32 32" fill="none" xmlns="http://www.w3.org/2000/svg">
<g clip-path="url(#clip0_9_1432)">
<g filter="url(#filter0_d_9_1432)">
<path fill-rule="evenodd" clip-rule="evenodd" d="M16 2C15.4477 2 15 2.44772 15 3V4C15 4.55228 15.4477 5 16 5C16.5523 5 17 4.55228 17 4V3C17 2.44772 16.5523 2 16 2ZM21.8139 21.8664C21.3207 21.53 21.1657 20.7614 21.5319 20.2898C22.4521 19.1049 23 17.6164 23 16C23 12.134 19.866 9 16 9C12.134 9 9 12.134 9 16C9 16.2502 8.84894 16.4775 8.61802 16.5737C8.5232 16.6132 8.42937 16.6546 8.33657 16.6978C7.74543 16.9732 7 16.6521 7 16C7 11.0294 11.0294 7 16 7C20.9706 7 25 11.0294 25 16C25 18.1986 24.2116 20.2131 22.9022 21.7762C22.6334 22.097 22.1597 22.1022 21.8139 21.8664ZM27 16C27 15.4477 27.4477 15 28 15H29C29.5523 15 30 15.4477 30 16C30 16.5523 29.5523 17 29 17H28C27.4477 17 27 16.5523 27 16ZM28.1243 9C27.8482 8.52171 27.2366 8.35783 26.7583 8.63397L25.8923 9.13397C25.414 9.41012 25.2501 10.0217 25.5263 10.5C25.8024 10.9783 26.414 11.1422 26.8923 10.866L27.7583 10.366C28.2366 10.0899 28.4005 9.47829 28.1243 9ZM21.5001 6.47381C21.0218 6.19767 20.8579 5.58608 21.134 5.10778L21.634 4.24176C21.9102 3.76346 22.5218 3.59959 23.0001 3.87573C23.4784 4.15187 23.6422 4.76347 23.3661 5.24176L22.8661 6.10778C22.5899 6.58608 21.9784 6.74995 21.5001 6.47381ZM9 3.87573C8.52171 4.15187 8.35783 4.76347 8.63397 5.24176L9.13397 6.10778C9.41012 6.58608 10.0217 6.74995 10.5 6.47381C10.9783 6.19767 11.1422 5.58608 10.866 5.10778L10.366 4.24176C10.0899 3.76347 9.47829 3.59959 9 3.87573ZM6.47375 10.5C6.19761 10.9783 5.58601 11.1422 5.10772 10.866L4.2417 10.366C3.7634 10.0899 3.59953 9.47829 3.87567 9C4.15181 8.52171 4.7634 8.35783 5.2417 8.63397L6.10772 9.13397C6.58601 9.41012 6.74989 10.0217 6.47375 10.5ZM5 16C5 15.4477 4.55228 15 4 15H3C2.44772 15 2 15.4477 2 16C2 16.5523 2.44772 17 3 17H4C4.55228 17 5 16.5523 5 16ZM28.1244 23C27.8482 23.4783 27.2366 23.6422 26.7584 23.366L25.8923 22.866C25.414 22.5899 25.2502 21.9783 25.5263 21.5C25.8024 21.0217 26.414 20.8578 26.8923 21.134L27.7584 21.634C28.2366 21.9101 28.4005 22.5217 28.1244 23Z" fill="url(#paint0_linear_9_1432)"/>
</g>
<path fill-rule="evenodd" clip-rule="evenodd" d="M11.5 27.9998C11.5278 27.9998 11.5556 27.9996 11.5833 27.9992H18.9332C18.946 27.9994 18.9588 27.9996 18.9716 27.9998H19C20.6569 27.9998 22 26.6567 22 24.9999C22 23.343 20.6569 21.9999 19 21.9999C18.2306 21.9999 17.5289 22.2895 16.9979 22.7657C17.0021 22.6776 17.0042 22.5891 17.0042 22.5C17.0042 21.8247 16.8825 21.1779 16.6598 20.5802C17.358 20.2097 18.1545 19.9999 19 19.9999C21.7614 19.9999 24 22.2385 24 24.9999C24 27.7613 21.7614 29.9999 19 29.9999C18.9878 29.9999 18.9756 29.9998 18.9634 29.9998L11.5388 29.9998C11.5258 29.9998 11.5129 29.9998 11.5 29.9998C7.35787 29.9998 4 26.6419 4 22.4998C4 18.3576 7.35787 14.9998 11.5 14.9998C14.7721 14.9998 17.5548 17.0951 18.5794 20.0173C17.889 20.0748 17.2385 20.2725 16.6564 20.5819C15.878 18.49 13.8631 16.9998 11.5 16.9998C8.46244 16.9998 6 19.4622 6 22.4998C6 25.5373 8.46244 27.9998 11.5 27.9998Z" fill="url(#paint1_linear_9_1432)"/>
</g>
<defs>
<filter id="filter0_d_9_1432" x="-2" y="2" width="36" height="29.5002" filterUnits="userSpaceOnUse" color-interpolation-filters="sRGB">
<feFlood flood-opacity="0" result="BackgroundImageFix"/>
<feColorMatrix in="SourceAlpha" type="matrix" values="0 0 0 0 0 0 0 0 0 0 0 0 0 0 0 0 0 0 127 0" result="hardAlpha"/>
<feOffset dy="4"/>
<feGaussianBlur stdDeviation="2"/>
<feComposite in2="hardAlpha" operator="out"/>
<feColorMatrix type="matrix" values="0 0 0 0 0 0 0 0 0 0 0 0 0 0 0 0 0 0 0.25 0"/>
<feBlend mode="normal" in2="BackgroundImageFix" result="effect1_dropShadow_9_1432"/>
<feBlend mode="normal" in="SourceGraphic" in2="effect1_dropShadow_9_1432" result="shape"/>
</filter>
<linearGradient id="paint0_linear_9_1432" x1="16" y1="2" x2="16" y2="23.866" gradientUnits="userSpaceOnUse">
<stop stop-color="#EFC977"/>
<stop offset="1" stop-color="#E07256"/>
</linearGradient>
<linearGradient id="paint1_linear_9_1432" x1="14" y1="14.9998" x2="14" y2="29.9999" gradientUnits="userSpaceOnUse">
<stop stop-color="#B2D4F7"/>
<stop offset="1" stop-color="#D9E2F3"/>
</linearGradient>
<clipPath id="clip0_9_1432">
<rect width="32" height="32" fill="white"/>
</clipPath>
</defs>
</svg>
