<svg width="32" height="32" viewBox="0 0 32 32" fill="none" xmlns="http://www.w3.org/2000/svg">
<path fill-rule="evenodd" clip-rule="evenodd" d="M28.1115 11.5897C27.0473 12.6446 25.6171 13.2598 24.1106 13.3088C22.5818 13.3586 21.0927 12.8215 19.9542 11.8097C18.8157 10.7979 18.1158 9.38965 18.0006 7.879C17.8876 6.39555 18.3469 4.92597 19.2842 3.7661C19.8011 3.14446 19.5799 2.02147 18.7716 2.00306C18.6821 2.00103 18.5923 2 18.5022 2C12.1522 2 7.00439 7.09853 7.00439 13.3879C7.00439 14.376 7.13145 15.3346 7.37025 16.2488C7.51466 16.8016 8.1655 17.0034 8.68092 16.7569C9.12128 16.5462 9.37794 16.0473 9.26338 15.5728C9.09401 14.8712 9.00439 14.1396 9.00439 13.3879C9.00439 9.50238 11.399 6.15162 14.8253 4.72874C15.5765 4.41676 16.2458 5.21954 16.098 6.01945C15.9765 6.67674 15.9391 7.35186 15.9907 8.02914C16.145 10.0531 17.0828 11.9399 18.6082 13.2955C20.1335 14.6511 22.1286 15.3707 24.1769 15.3041C24.865 15.2817 25.5412 15.1712 26.1901 14.9792C26.9691 14.7488 27.8321 15.3328 27.5943 16.1096C26.7193 18.9671 24.5022 21.2561 21.6583 22.2456C21.1257 22.431 20.8755 23.102 21.077 23.6288C21.2359 24.0443 21.6644 24.3486 22.0875 24.2113C26.682 22.7192 30.0001 18.4373 30.0001 13.3879C30.0001 12.8915 29.968 12.4025 29.9058 11.9228C29.8026 11.1268 28.6777 11.0209 28.1115 11.5897Z" fill="url(#paint0_linear_9_1949)"/>
<path fill-rule="evenodd" clip-rule="evenodd" d="M9.50252 27.9909L9.52319 27.9909V27.9914H12.9899C12.9903 27.9919 12.9906 27.9923 12.9909 27.9927H12.998C12.9977 27.9923 12.9974 27.9919 12.9971 27.9914H16.7739C16.7797 27.9919 16.7855 27.9923 16.7913 27.9927H17.0024V28.0002C17.0032 28.0002 17.0041 28.0002 17.005 28.0002C18.6629 28.0002 20.0066 26.6563 20.0066 24.999C20.0066 23.3416 18.6629 21.9978 17.005 21.9978C16.2367 21.9978 15.5358 22.2864 15.0049 22.761C15.0073 22.6945 15.0086 22.6277 15.0086 22.5606C15.0086 21.8914 14.8868 21.2504 14.664 20.6581L14.6585 20.661C13.8805 18.6057 11.8759 17.1294 9.50252 17.1294C6.4454 17.1294 4 19.5789 4 22.5602C4 25.5414 6.4454 27.9909 9.50252 27.9909ZM16.7289 29.9927C16.8203 29.9977 16.9123 30.0002 17.005 30.0002C19.7673 30.0002 22.0066 27.7611 22.0066 24.999C22.0066 22.2369 19.7673 19.9978 17.005 19.9978C16.8531 19.9978 16.7028 20.0045 16.5544 20.0178C15.5061 17.1659 12.7444 15.1294 9.50252 15.1294C5.35899 15.1294 2 18.4563 2 22.5602C2 26.6641 5.35899 29.9909 9.50252 29.9909C9.50461 29.9909 9.5067 29.9909 9.50879 29.9909V29.9927L16.7289 29.9927Z" fill="url(#paint1_linear_9_1949)"/>
<defs>
<linearGradient id="paint0_linear_9_1949" x1="18.5022" y1="2" x2="18.5022" y2="24.4386" gradientUnits="userSpaceOnUse">
<stop stop-color="#F5BD52"/>
<stop offset="1" stop-color="#F5DA79"/>
</linearGradient>
<linearGradient id="paint1_linear_9_1949" x1="12.0033" y1="15.1294" x2="12.0033" y2="30.0002" gradientUnits="userSpaceOnUse">
<stop stop-color="#B2D4F7"/>
<stop offset="1" stop-color="#D9E2F3"/>
</linearGradient>
</defs>
</svg>
