<svg width="32" height="32" viewBox="0 0 32 32" fill="none" xmlns="http://www.w3.org/2000/svg">
<path fillRule="evenodd" clipRule="evenodd" d="M2 13C2 16.265 3.3718 19.1977 5.55035 21.2123C6.13221 21.7503 7 21.2932 7 20.5007V20.2729C7 19.9888 6.87696 19.7203 6.6753 19.5201C5.0343 17.8915 4 15.588 4 13C4 7.96046 7.92179 4 12.6083 4C16.5833 4 20.0082 6.84927 20.9565 10.7896C20.9567 10.7904 20.9576 10.7909 20.9584 10.7905V10.7905C20.9592 10.7902 20.9601 10.7907 20.9603 10.7915C21.0185 11.0295 21.0675 11.2713 21.1069 11.5164C21.18 11.971 21.6762 12.2585 22.122 12.1433C22.4853 12.0495 22.8632 12 23.2493 12C25.8053 12 28 14.1696 28 17C28 18.8974 27.0137 20.4979 25.5934 21.3468C25.2475 21.5536 25 21.909 25 22.3121V22.4468C25 23.1081 25.6347 23.5859 26.2239 23.2855C28.4606 22.1452 30 19.759 30 17C30 13.134 26.9776 10 23.2493 10V10C22.9999 10 22.7753 9.8404 22.7009 9.60242C21.3204 5.19007 17.3236 2 12.6083 2C6.74949 2 2 6.92487 2 13ZM17.3051 24.7962C17.2755 24.628 17.3459 24.4578 17.4858 24.3599V24.3599C17.7357 24.185 17.7357 23.815 17.4858 23.6401V23.6401C17.3459 23.5422 17.2755 23.372 17.3051 23.2038V23.2038C17.3581 22.9035 17.0965 22.6419 16.7962 22.6949V22.6949C16.628 22.7245 16.4578 22.6541 16.3599 22.5142V22.5142C16.185 22.2643 15.815 22.2643 15.6401 22.5142V22.5142C15.5422 22.6541 15.372 22.7245 15.2038 22.6949V22.6949C14.9035 22.6419 14.6419 22.9035 14.6949 23.2038V23.2038C14.7245 23.372 14.6541 23.5422 14.5142 23.6401V23.6401C14.2643 23.815 14.2643 24.185 14.5142 24.3599V24.3599C14.6541 24.4578 14.7245 24.628 14.6949 24.7962V24.7962C14.6419 25.0965 14.9035 25.3581 15.2038 25.3051V25.3051C15.372 25.2755 15.5422 25.3459 15.6401 25.4858V25.4858C15.815 25.7357 16.185 25.7357 16.3599 25.4858V25.4858C16.4578 25.3459 16.628 25.2755 16.7962 25.3051V25.3051C17.0965 25.3581 17.3581 25.0965 17.3051 24.7962V24.7962ZM14.3143 19.6401C14.5641 19.815 14.5641 20.185 14.3143 20.3599V20.3599C14.1744 20.4578 14.1039 20.628 14.1336 20.7962V20.7962C14.1866 21.0965 13.9249 21.3581 13.6246 21.3051V21.3051C13.4564 21.2755 13.2863 21.3459 13.1883 21.4858V21.4858C13.0134 21.7357 12.6434 21.7357 12.4685 21.4858V21.4858C12.3706 21.3459 12.2005 21.2755 12.0323 21.3051V21.3051C11.7319 21.3581 11.4703 21.0965 11.5233 20.7962V20.7962C11.553 20.628 11.4825 20.4578 11.3426 20.3599V20.3599C11.0927 20.185 11.0927 19.815 11.3426 19.6401V19.6401C11.4825 19.5422 11.553 19.372 11.5233 19.2038V19.2038C11.4703 18.9035 11.7319 18.6419 12.0323 18.6949V18.6949C12.2005 18.7245 12.3706 18.6541 12.4685 18.5142V18.5142C12.6434 18.2643 13.0134 18.2643 13.1883 18.5142V18.5142C13.2863 18.6541 13.4564 18.7245 13.6246 18.6949V18.6949C13.9249 18.6419 14.1866 18.9035 14.1336 19.2038V19.2038C14.1039 19.372 14.1744 19.5422 14.3143 19.6401V19.6401ZM14.1336 28.7962C14.1039 28.628 14.1744 28.4578 14.3143 28.3599V28.3599C14.5641 28.185 14.5641 27.815 14.3143 27.6401V27.6401C14.1744 27.5422 14.1039 27.372 14.1336 27.2038V27.2038C14.1866 26.9035 13.9249 26.6419 13.6246 26.6949V26.6949C13.4564 26.7245 13.2863 26.6541 13.1883 26.5142V26.5142C13.0134 26.2643 12.6434 26.2643 12.4685 26.5142V26.5142C12.3706 26.6541 12.2005 26.7245 12.0323 26.6949V26.6949C11.7319 26.6419 11.4703 26.9035 11.5233 27.2038V27.2038C11.553 27.372 11.4825 27.5422 11.3426 27.6401V27.6401C11.0927 27.815 11.0927 28.185 11.3426 28.3599V28.3599C11.4825 28.4578 11.553 28.628 11.5233 28.7962V28.7962C11.4703 29.0965 11.7319 29.3581 12.0323 29.3051V29.3051C12.2005 29.2755 12.3706 29.3459 12.4685 29.4858V29.4858C12.6434 29.7357 13.0134 29.7357 13.1883 29.4858V29.4858C13.2863 29.3459 13.4564 29.2755 13.6246 29.3051V29.3051C13.9249 29.3581 14.1866 29.0965 14.1336 28.7962V28.7962ZM23.4858 23.6401C23.7357 23.815 23.7357 24.185 23.4858 24.3599V24.3599C23.3459 24.4578 23.2755 24.628 23.3051 24.7962V24.7962C23.3581 25.0965 23.0965 25.3581 22.7962 25.3051V25.3051C22.628 25.2755 22.4578 25.3459 22.3599 25.4858V25.4858C22.185 25.7357 21.815 25.7357 21.6401 25.4858V25.4858C21.5422 25.3459 21.372 25.2755 21.2038 25.3051V25.3051C20.9035 25.3581 20.6419 25.0965 20.6949 24.7962V24.7962C20.7245 24.628 20.6541 24.4578 20.5142 24.3599V24.3599C20.2643 24.185 20.2643 23.815 20.5142 23.6401V23.6401C20.6541 23.5422 20.7245 23.372 20.6949 23.2038V23.2038C20.6419 22.9035 20.9035 22.6419 21.2038 22.6949V22.6949C21.372 22.7245 21.5422 22.6541 21.6401 22.5142V22.5142C21.815 22.2643 22.185 22.2643 22.3599 22.5142V22.5142C22.4578 22.6541 22.628 22.7245 22.7962 22.6949V22.6949C23.0965 22.6419 23.3581 22.9035 23.3051 23.2038V23.2038C23.2755 23.372 23.3459 23.5422 23.4858 23.6401V23.6401ZM20.1336 20.7962C20.1039 20.628 20.1744 20.4578 20.3143 20.3599V20.3599C20.5641 20.185 20.5641 19.815 20.3143 19.6401V19.6401C20.1744 19.5422 20.1039 19.372 20.1336 19.2038V19.2038C20.1866 18.9035 19.9249 18.6419 19.6246 18.6949V18.6949C19.4564 18.7245 19.2863 18.6541 19.1883 18.5142V18.5142C19.0134 18.2643 18.6434 18.2643 18.4685 18.5142V18.5142C18.3706 18.6541 18.2005 18.7245 18.0323 18.6949V18.6949C17.7319 18.6419 17.4703 18.9035 17.5233 19.2038V19.2038C17.553 19.372 17.4825 19.5422 17.3426 19.6401V19.6401C17.0927 19.815 17.0927 20.185 17.3426 20.3599V20.3599C17.4825 20.4578 17.553 20.628 17.5233 20.7962V20.7962C17.4703 21.0965 17.7319 21.3581 18.0323 21.3051V21.3051C18.2005 21.2755 18.3706 21.3459 18.4685 21.4858V21.4858C18.6434 21.7357 19.0134 21.7357 19.1883 21.4858V21.4858C19.2863 21.3459 19.4564 21.2755 19.6246 21.3051V21.3051C19.9249 21.3581 20.1866 21.0965 20.1336 20.7962V20.7962ZM20.3143 27.6401C20.5641 27.815 20.5641 28.185 20.3143 28.3599V28.3599C20.1744 28.4578 20.1039 28.628 20.1336 28.7962V28.7962C20.1866 29.0965 19.9249 29.3581 19.6246 29.3051V29.3051C19.4564 29.2755 19.2863 29.3459 19.1883 29.4858V29.4858C19.0134 29.7357 18.6434 29.7357 18.4685 29.4858V29.4858C18.3706 29.3459 18.2005 29.2755 18.0323 29.3051V29.3051C17.7319 29.3581 17.4703 29.0965 17.5233 28.7962V28.7962C17.553 28.628 17.4825 28.4578 17.3426 28.3599V28.3599C17.0927 28.185 17.0927 27.815 17.3426 27.6401V27.6401C17.4825 27.5422 17.553 27.372 17.5233 27.2038V27.2038C17.4703 26.9035 17.7319 26.6419 18.0323 26.6949V26.6949C18.2005 26.7245 18.3706 26.6541 18.4685 26.5142V26.5142C18.6434 26.2643 19.0134 26.2643 19.1883 26.5142V26.5142C19.2863 26.6541 19.4564 26.7245 19.6246 26.6949V26.6949C19.9249 26.6419 20.1866 26.9035 20.1336 27.2038V27.2038C20.1039 27.372 20.1744 27.5422 20.3143 27.6401V27.6401ZM11.1336 24.7962C11.1039 24.628 11.1744 24.4578 11.3143 24.3599V24.3599C11.5641 24.185 11.5641 23.815 11.3143 23.6401V23.6401C11.1744 23.5422 11.1039 23.372 11.1336 23.2038V23.2038C11.1866 22.9035 10.9249 22.6419 10.6246 22.6949V22.6949C10.4564 22.7245 10.2863 22.6541 10.1883 22.5142V22.5142C10.0134 22.2643 9.64342 22.2643 9.46853 22.5142V22.5142C9.37059 22.6541 9.20045 22.7245 9.03227 22.6949V22.6949C8.73194 22.6419 8.47029 22.9035 8.5233 23.2038V23.2038C8.55298 23.372 8.4825 23.5422 8.34259 23.6401V23.6401C8.09274 23.815 8.09274 24.185 8.34259 24.3599V24.3599C8.4825 24.4578 8.55298 24.628 8.5233 24.7962V24.7962C8.47029 25.0965 8.73194 25.3581 9.03227 25.3051V25.3051C9.20045 25.2755 9.37059 25.3459 9.46853 25.4858V25.4858C9.64342 25.7357 10.0134 25.7357 10.1883 25.4858V25.4858C10.2863 25.3459 10.4564 25.2755 10.6246 25.3051V25.3051C10.9249 25.3581 11.1866 25.0965 11.1336 24.7962V24.7962Z" fill="url(#paint0_linear_9_3847)"/>
<defs>
<linearGradient id="paint0_linear_9_3847" x1="16" y1="2" x2="16" y2="30" gradientUnits="userSpaceOnUse">
<stop stopColor="#B2D4F7"/>
<stop offset="1" stopColor="#D9E2F3"/>
</linearGradient>
</defs>
</svg>
