<svg width="32" height="32" viewBox="0 0 32 32" fill="none" xmlns="http://www.w3.org/2000/svg">
<path fillRule="evenodd" clipRule="evenodd" d="M16 5C15.4477 5 15 4.55228 15 4V3C15 2.44772 15.4477 2 16 2V2C16.5523 2 17 2.44772 17 3V4C17 4.55228 16.5523 5 16 5V5ZM21.5001 6.47381C21.0218 6.19767 20.8579 5.58608 21.134 5.10778L21.634 4.24176C21.9102 3.76346 22.5218 3.59959 23.0001 3.87573V3.87573C23.4784 4.15187 23.6422 4.76347 23.3661 5.24176L22.8661 6.10778C22.5899 6.58608 21.9784 6.74995 21.5001 6.47381V6.47381ZM16 23C19.866 23 23 19.866 23 16C23 12.134 19.866 9 16 9C12.134 9 9 12.134 9 16C9 19.866 12.134 23 16 23ZM16 25C20.9706 25 25 20.9706 25 16C25 11.0294 20.9706 7 16 7C11.0294 7 7 11.0294 7 16C7 20.9706 11.0294 25 16 25ZM27 16C27 15.4477 27.4477 15 28 15H29C29.5523 15 30 15.4477 30 16V16C30 16.5523 29.5523 17 29 17H28C27.4477 17 27 16.5523 27 16V16ZM28.1243 9C27.8482 8.52171 27.2366 8.35783 26.7583 8.63397L25.8923 9.13397C25.414 9.41012 25.2501 10.0217 25.5263 10.5V10.5C25.8024 10.9783 26.414 11.1422 26.8923 10.866L27.7583 10.366C28.2366 10.0899 28.4005 9.47829 28.1243 9V9ZM9 3.87573C8.52171 4.15187 8.35783 4.76347 8.63397 5.24176L9.13397 6.10778C9.41012 6.58608 10.0217 6.74995 10.5 6.47381V6.47381C10.9783 6.19767 11.1422 5.58608 10.866 5.10778L10.366 4.24176C10.0899 3.76347 9.47829 3.59959 9 3.87573V3.87573ZM6.47375 10.5C6.19761 10.9783 5.58601 11.1422 5.10772 10.866L4.2417 10.366C3.7634 10.0899 3.59953 9.47829 3.87567 9V9C4.15181 8.52171 4.7634 8.35783 5.2417 8.63397L6.10772 9.13397C6.58601 9.41012 6.74989 10.0217 6.47375 10.5V10.5ZM16 27C15.4477 27 15 27.4477 15 28V29C15 29.5523 15.4477 30 16 30V30C16.5523 30 17 29.5523 17 29V28C17 27.4477 16.5523 27 16 27V27ZM5 16C5 15.4477 4.55228 15 4 15H3C2.44772 15 2 15.4477 2 16V16C2 16.5523 2.44772 17 3 17H4C4.55228 17 5 16.5523 5 16V16ZM3.87562 23C3.59948 22.5217 3.76335 21.9101 4.24164 21.634L5.10767 21.134C5.58596 20.8578 6.19755 21.0217 6.47369 21.5V21.5C6.74984 21.9783 6.58596 22.5899 6.10767 22.866L5.24164 23.366C4.76335 23.6422 4.15176 23.4783 3.87562 23V23ZM10.5001 25.5264C10.0218 25.2502 9.41018 25.4141 9.13404 25.8924L8.63404 26.7584C8.35789 27.2367 8.52177 27.8483 9.00006 28.1244V28.1244C9.47835 28.4006 10.0899 28.2367 10.3661 27.7584L10.8661 26.8924C11.1422 26.4141 10.9784 25.8025 10.5001 25.5264V25.5264ZM23 28.1244C22.5217 28.4006 21.9101 28.2367 21.634 27.7584L21.134 26.8924C20.8578 26.4141 21.0217 25.8025 21.5 25.5264V25.5264C21.9783 25.2502 22.5899 25.4141 22.866 25.8924L23.366 26.7584C23.6422 27.2367 23.4783 27.8483 23 28.1244V28.1244ZM25.5263 21.5C25.2502 21.9783 25.414 22.5899 25.8923 22.866L26.7584 23.366C27.2366 23.6422 27.8482 23.4783 28.1244 23V23C28.4005 22.5217 28.2366 21.9101 27.7584 21.634L26.8923 21.134C26.414 20.8578 25.8024 21.0217 25.5263 21.5V21.5Z" fill="url(#paint0_linear_9_803)"/>
<defs>
<linearGradient id="paint0_linear_9_803" x1="16" y1="2" x2="16" y2="30" gradientUnits="userSpaceOnUse">
<stop stopColor="#EFC977"/>
<stop offset="1" stopColor="#E07256"/>
</linearGradient>
</defs>
</svg>
