<svg width="32" height="32" viewBox="0 0 32 32" fill="none" xmlns="http://www.w3.org/2000/svg">
<path fillRule="evenodd" clipRule="evenodd" d="M9 21.9043C9 22.6025 8.30181 23.0816 7.68842 22.748C4.30688 20.9092 2 17.2339 2 13C2 6.92487 6.74949 2 12.6083 2C17.3236 2 21.3204 5.19007 22.7009 9.60242C22.7753 9.8404 22.9999 10 23.2493 10V10C26.9776 10 30 13.134 30 17C30 20.866 26.9776 24 23.2493 24V24C23.089 24 22.9369 23.9325 22.8233 23.8194L22.7093 23.7059C22.3178 23.3163 22.3171 22.6829 22.7076 22.2924L22.7858 22.2142C22.9229 22.0771 23.109 22 23.3029 22V22C25.8359 21.9699 28 19.8105 28 17C28 14.1696 25.8053 12 23.2493 12C22.8632 12 22.4853 12.0495 22.122 12.1433C21.6762 12.2585 21.18 11.971 21.1069 11.5164C21.0675 11.2713 21.0185 11.0295 20.9603 10.7915C20.9601 10.7907 20.9592 10.7902 20.9584 10.7905V10.7905C20.9576 10.7909 20.9567 10.7904 20.9565 10.7896C20.0082 6.84927 16.5833 4 12.6083 4C7.92179 4 4 7.96046 4 13C4 16.4262 5.81271 19.3536 8.44603 20.8768C8.77799 21.0689 9 21.4142 9 21.7977V21.9043Z" fill="url(#paint0_linear_9_3765)"/>
<path fillRule="evenodd" clipRule="evenodd" d="M16.6133 17.2774C16.9196 16.8178 17.5405 16.6937 18 17V17C18.4595 17.3064 18.5837 17.9272 18.2774 18.3868L16.905 20.4453C16.4619 21.1099 16.9383 22 17.737 22H19C19.8158 22 20.2883 22.9242 19.8107 23.5855L16.0628 28.7748C15.7395 29.2226 15.1144 29.3234 14.6667 29V29C14.2189 28.6767 14.1181 28.0516 14.4415 27.6038L15.8992 25.5855C16.3768 24.9242 15.9042 24 15.0885 24H14C13.2013 24 12.7249 23.1099 13.1679 22.4453L16.6133 17.2774Z" fill="url(#paint1_linear_9_3765)"/>
<path fillRule="evenodd" clipRule="evenodd" d="M20.3609 26.9244C20.1533 27.4108 20.0009 27.9308 20.001 28.4091C20.0013 29.2877 20.6731 30 21.5015 30C22.33 30 23.0013 29.2877 23.001 28.4091C23.0009 27.9619 22.8327 27.4321 22.609 26.9252C22.4851 26.6445 22.3442 26.3708 22.2054 26.122C21.8816 25.5418 21.0996 25.5286 20.7708 26.1059C20.6283 26.3561 20.4848 26.6343 20.3609 26.9244Z" fill="url(#paint2_linear_9_3765)"/>
<path fillRule="evenodd" clipRule="evenodd" d="M9.36092 26.9244C9.15328 27.4108 9.0009 27.9308 9.00105 28.4091C9.00132 29.2877 9.67311 30 10.5015 30C11.33 30 12.0013 29.2877 12.001 28.4091C12.0009 27.9619 11.8327 27.4321 11.609 26.9252C11.4851 26.6445 11.3442 26.3708 11.2054 26.122C10.8816 25.5418 10.0996 25.5286 9.77084 26.1059C9.6283 26.3561 9.48478 26.6343 9.36092 26.9244Z" fill="url(#paint3_linear_9_3765)"/>
<defs>
<linearGradient id="paint0_linear_9_3765" x1="16" y1="2" x2="16" y2="24" gradientUnits="userSpaceOnUse">
<stop stopColor="#95B6F6"/>
<stop offset="1" stopColor="#5193DE"/>
</linearGradient>
<linearGradient id="paint1_linear_9_3765" x1="16.5436" y1="16.4453" x2="16.5436" y2="29.5855" gradientUnits="userSpaceOnUse">
<stop stopColor="#F5BD52"/>
<stop offset="1" stopColor="#F5DA79"/>
</linearGradient>
<linearGradient id="paint2_linear_9_3765" x1="21.5" y1="25" x2="21.5" y2="30" gradientUnits="userSpaceOnUse">
<stop stopColor="#95B6F6"/>
<stop offset="1" stopColor="#5193DE"/>
</linearGradient>
<linearGradient id="paint3_linear_9_3765" x1="10.5" y1="25" x2="10.5" y2="30" gradientUnits="userSpaceOnUse">
<stop stopColor="#95B6F6"/>
<stop offset="1" stopColor="#5193DE"/>
</linearGradient>
</defs>
</svg>
